<?xml version="1.0" encoding="UTF-8" standalone="no"?>
<!DOCTYPE svg PUBLIC "-//W3C//DTD SVG 1.1//EN" "http://www.w3.org/Graphics/SVG/1.1/DTD/svg11.dtd">
<svg version="1.1" xmlns="http://www.w3.org/2000/svg" xmlns:xlink="http://www.w3.org/1999/xlink" preserveAspectRatio="xMidYMid meet" viewBox="0 0 640 640" width="640" height="640"><defs><path d="M178.15 198.09C178.15 206.26 178.15 223.89 178.15 232.06C178.15 235.86 175.06 238.94 171.26 238.94C163.09 238.94 145.46 238.94 137.29 238.94C133.49 238.94 130.41 235.86 130.41 232.06C130.41 223.89 130.41 206.26 130.41 198.09C130.41 194.29 133.49 191.21 137.29 191.21C145.46 191.21 163.09 191.21 171.26 191.21C175.06 191.21 178.15 194.29 178.15 198.09Z" id="b5vwqY9ys0"></path><path d="M178.15 198.09C178.15 206.26 178.15 223.89 178.15 232.06C178.15 235.86 175.06 238.94 171.26 238.94C163.09 238.94 145.46 238.94 137.29 238.94C133.49 238.94 130.41 235.86 130.41 232.06C130.41 223.89 130.41 206.26 130.41 198.09C130.41 194.29 133.49 191.21 137.29 191.21C145.46 191.21 163.09 191.21 171.26 191.21C175.06 191.21 178.15 194.29 178.15 198.09Z" id="b2hl2ed2CE"></path><path d="M178.15 164.21C173.71 164.21 170.94 164.21 169.83 164.21C161.24 164.21 154.28 171.17 154.28 179.76C154.28 180.87 154.28 183.64 154.28 188.07" id="a4znAcFZ9"></path><path d="M178.15 164.21C182.58 164.21 185.35 164.21 186.46 164.21C195.05 164.21 202.01 157.24 202.01 148.65C202.01 147.54 202.01 144.77 202.01 140.34" id="c1aXsgCaoj"></path><path d="M202.01 141.34L202.01 111.84" id="a2rBmari5d"></path><path d="M202.01 110.84C195.43 110.84 190.08 105.49 190.08 98.9C190.08 92.32 195.43 86.97 202.01 86.97C208.6 86.97 213.95 92.32 213.95 98.9C213.95 105.49 208.6 110.84 202.01 110.84Z" id="a53v1cdVe"></path><path d="M202.01 110.84C195.43 110.84 190.08 105.49 190.08 98.9C190.08 92.32 195.43 86.97 202.01 86.97C208.6 86.97 213.95 92.32 213.95 98.9C213.95 105.49 208.6 110.84 202.01 110.84Z" id="aRo6mM1JG"></path><path d="M280.83 244.82C280.83 252.99 280.83 270.62 280.83 278.79C280.83 282.59 277.74 285.67 273.94 285.67C265.77 285.67 248.14 285.67 239.97 285.67C236.17 285.67 233.09 282.59 233.09 278.79C233.09 270.62 233.09 252.99 233.09 244.82C233.09 241.02 236.17 237.94 239.97 237.94C248.14 237.94 265.77 237.94 273.94 237.94C277.74 237.94 280.83 241.02 280.83 244.82Z" id="e3YQ3BMPth"></path><path d="M205.53 238.95C205.53 234.51 205.53 231.74 205.53 230.63C205.53 222.04 198.57 215.08 189.98 215.08C188.87 215.08 186.1 215.08 181.67 215.08" id="dOnn62goV"></path><path d="M205.53 237.94C205.53 242.37 205.53 245.14 205.53 246.25C205.53 254.84 212.5 261.8 221.09 261.8C222.2 261.8 224.97 261.8 229.4 261.8" id="c6INjwzFwA"></path><path d="M284.55 261.8L314.05 261.8" id="avX8hzpWN"></path><path d="M256.96 234.93L256.96 205.43" id="c2eJXGkRII"></path><path d="M313.04 146.64C313.04 142.2 313.04 139.43 313.04 138.32C313.04 129.73 306.08 122.77 297.49 122.77C296.38 122.77 293.61 122.77 289.18 122.77" id="f6RToV7afT"></path><path d="M90.32 172.33C90.32 167.89 90.32 165.12 90.32 164.01C90.32 155.42 83.36 148.46 74.77 148.46C73.66 148.46 70.89 148.46 66.46 148.46" id="c7EylyBuY1"></path><path d="M221.16 193.5C214.58 193.5 209.23 188.15 209.23 181.56C209.23 174.98 214.58 169.63 221.16 169.63C227.75 169.63 233.1 174.98 233.1 181.56C233.1 188.15 227.75 193.5 221.16 193.5Z" id="a4HhG90RDs"></path><path d="M313.05 258.65L313.05 229.15" id="cWf7JxSHd"></path><path d="M336.92 185.16C336.92 193.33 336.92 210.96 336.92 219.13C336.92 222.93 333.83 226.01 330.03 226.01C321.86 226.01 304.23 226.01 296.06 226.01C292.26 226.01 289.18 222.93 289.18 219.13C289.18 210.96 289.18 193.33 289.18 185.16C289.18 181.36 292.26 178.28 296.06 178.28C304.23 178.28 321.86 178.28 330.03 178.28C333.83 178.28 336.92 181.36 336.92 185.16Z" id="csd6nPWrV"></path><path d="M313.05 175.14L313.05 145.64" id="a2gAi5jGWZ"></path><path d="M256.96 205.43C256.96 200.99 256.96 198.22 256.96 197.11C256.96 188.52 250 181.56 241.41 181.56C240.3 181.56 237.53 181.56 233.1 181.56" id="bjVfDP6A"></path><path d="M286.75 105.79C286.75 113.96 286.75 131.59 286.75 139.76C286.75 143.56 283.66 146.64 279.86 146.64C271.69 146.64 254.06 146.64 245.89 146.64C242.09 146.64 239.01 143.56 239.01 139.76C239.01 131.59 239.01 113.96 239.01 105.79C239.01 101.99 242.09 98.91 245.89 98.91C254.06 98.91 271.69 98.91 279.86 98.91C283.66 98.91 286.75 101.99 286.75 105.79Z" id="d1g1CcnZvG"></path><path d="M316.82 146.64L346.32 146.64" id="aGvANqhkJ"></path><path d="M360.66 158.57C354.08 158.57 348.73 153.22 348.73 146.63C348.73 140.05 354.08 134.7 360.66 134.7C367.25 134.7 372.6 140.05 372.6 146.63C372.6 153.22 367.25 158.57 360.66 158.57Z" id="ajXvl2fMw"></path><path d="M263.88 96.61L263.88 67.11" id="d13uGsCxIA"></path><path d="M334.38 108.55C327.8 108.55 322.45 103.2 322.45 96.61C322.45 90.03 327.8 84.68 334.38 84.68C340.97 84.68 346.32 90.03 346.32 96.61C346.32 103.2 340.97 108.55 334.38 108.55Z" id="b2MOS8isP"></path><path d="M334.39 81.86L334.39 52.36" id="dqjPETe5z"></path><path d="M161.98 105.79C161.98 113.96 161.98 131.59 161.98 139.76C161.98 143.56 158.89 146.64 155.09 146.64C146.92 146.64 129.29 146.64 121.12 146.64C117.32 146.64 114.24 143.56 114.24 139.76C114.24 131.59 114.24 113.96 114.24 105.79C114.24 101.99 117.32 98.91 121.12 98.91C129.29 98.91 146.92 98.91 155.09 98.91C158.89 98.91 161.98 101.99 161.98 105.79Z" id="b4cYNkwAr"></path><path d="M138.11 96.61L138.11 67.11" id="e2DlQYs8o"></path><path d="M374.98 146.64L404.48 146.64" id="a3ZIr0eHQi"></path><path d="M455.45 129.66C455.45 137.83 455.45 155.46 455.45 163.63C455.45 167.43 452.36 170.51 448.56 170.51C440.39 170.51 422.76 170.51 414.59 170.51C410.79 170.51 407.71 167.43 407.71 163.63C407.71 155.46 407.71 137.83 407.71 129.66C407.71 125.86 410.79 122.78 414.59 122.78C422.76 122.78 440.39 122.78 448.56 122.78C452.36 122.78 455.45 125.86 455.45 129.66Z" id="b2fvEBd2ym"></path><path d="M154.28 272.1L154.28 242.6" id="cg8TCPezd"></path><path d="M154.27 297.6C147.7 297.6 142.35 292.25 142.35 285.66C142.35 279.08 147.7 273.73 154.27 273.73C160.86 273.73 166.21 279.08 166.21 285.66C166.21 292.25 160.86 297.6 154.27 297.6Z" id="a2GDPZoXm0"></path><path d="M191.82 309.54C191.82 305.1 191.82 302.33 191.82 301.22C191.82 292.63 184.86 285.67 176.27 285.67C175.16 285.67 172.39 285.67 167.96 285.67" id="c2TnfagrIK"></path><path d="M215.69 319.95C215.69 328.12 215.69 345.75 215.69 353.92C215.69 357.72 212.6 360.8 208.8 360.8C200.63 360.8 183 360.8 174.83 360.8C171.03 360.8 167.95 357.72 167.95 353.92C167.95 345.75 167.95 328.12 167.95 319.95C167.95 316.15 171.03 313.07 174.83 313.07C183 313.07 200.63 313.07 208.8 313.07C212.6 313.07 215.69 316.15 215.69 319.95Z" id="dhI4wGv"></path><path d="M110.06 285.67L139.56 285.67" id="a1zucPxVHq"></path><path d="M106.68 268.69C106.68 276.86 106.68 294.49 106.68 302.66C106.68 306.46 103.59 309.54 99.79 309.54C91.62 309.54 73.99 309.54 65.82 309.54C62.02 309.54 58.94 306.46 58.94 302.66C58.94 294.49 58.94 276.86 58.94 268.69C58.94 264.89 62.02 261.81 65.82 261.81C73.99 261.81 91.62 261.81 99.79 261.81C103.59 261.81 106.68 264.89 106.68 268.69Z" id="d3GEmDJM1W"></path><path d="M218.92 336.94L248.42 336.94" id="gZJhcdpeK"></path><path d="M262.87 348.87C256.29 348.87 250.94 343.52 250.94 336.93C250.94 330.35 256.29 325 262.87 325C269.46 325 274.81 330.35 274.81 336.93C274.81 343.52 269.46 348.87 262.87 348.87Z" id="dPhnUVYn2"></path><path d="M313.04 276.56L313.04 247.06" id="j27CNJmGWl"></path><path d="M313.04 306.06L313.04 276.56" id="isRtsCuQ"></path><path d="M313.04 329.93C306.46 329.93 301.11 324.58 301.11 317.99C301.11 311.41 306.46 306.06 313.04 306.06C319.63 306.06 324.98 311.41 324.98 317.99C324.98 324.58 319.63 329.93 313.04 329.93Z" id="grV5vrGvg"></path><path d="M396.47 262.94C396.47 271.11 396.47 288.74 396.47 296.91C396.47 300.71 393.38 303.79 389.58 303.79C381.41 303.79 363.78 303.79 355.61 303.79C351.81 303.79 348.73 300.71 348.73 296.91C348.73 288.74 348.73 271.11 348.73 262.94C348.73 259.14 351.81 256.06 355.61 256.06C363.78 256.06 381.41 256.06 389.58 256.06C393.38 256.06 396.47 259.14 396.47 262.94Z" id="a5p5GS9pQ"></path><path d="M396.47 202.15C392.03 202.15 389.26 202.15 388.15 202.15C379.56 202.15 372.6 209.11 372.6 217.7C372.6 218.81 372.6 221.58 372.6 226.01" id="cB7YgQlG4"></path><path d="M372.6 305.44C372.6 309.87 372.6 312.64 372.6 313.75C372.6 322.34 379.57 329.3 388.16 329.3C389.27 329.3 392.04 329.3 396.47 329.3" id="b6D1i1oM9F"></path><path d="M372.6 253.87L372.6 224.37" id="aajTh7ODtS"></path><path d="M411.1 214.08C404.52 214.08 399.17 208.73 399.17 202.14C399.17 195.56 404.52 190.21 411.1 190.21C417.69 190.21 423.04 195.56 423.04 202.14C423.04 208.73 417.69 214.08 411.1 214.08Z" id="aaUzcBYXO"></path><path d="M425.95 202.15L455.45 202.15" id="bk4aem7hd"></path><path d="M399.17 279.93L428.67 279.93" id="c1PS61fojj"></path><path d="M46.36 214.08L75.86 214.08" id="gcY1AHGcY"></path><path d="M90.31 226.01C83.73 226.01 78.38 220.66 78.38 214.07C78.38 207.49 83.73 202.14 90.31 202.14C96.9 202.14 102.25 207.49 102.25 214.07C102.25 220.66 96.9 226.01 90.31 226.01Z" id="aOVuVqpvq"></path><path d="M90.32 200.01L90.32 170.51" id="c34o1nOoX"></path><path d="M135.26 336.94L164.76 336.94" id="e3a3zoKPJC"></path><path d="M136.26 336.94C131.82 336.94 129.05 336.94 127.94 336.94C119.35 336.94 112.39 343.9 112.39 352.49C112.39 353.6 112.39 356.37 112.39 360.8" id="d8jKw6Xq1"></path><path d="M112.39 388.71L112.39 359.21" id="b3tvrsN5AL"></path><path d="M431.58 120.48C431.58 116.04 431.58 113.27 431.58 112.16C431.58 103.57 424.62 96.61 416.03 96.61C414.92 96.61 412.15 96.61 407.72 96.61" id="f1FQLntu3D"></path><path d="M384.54 72.75C384.54 77.18 384.54 79.95 384.54 81.06C384.54 89.65 391.51 96.61 400.1 96.61C401.21 96.61 403.98 96.61 408.41 96.61" id="a1yn2mk8AK"></path><path d="M384.54 74.67L384.54 45.17" id="a4k8nZaatr"></path><path d="M477.89 262.94C477.89 271.11 477.89 288.74 477.89 296.91C477.89 300.71 474.8 303.79 471 303.79C462.83 303.79 445.2 303.79 437.03 303.79C433.23 303.79 430.15 300.71 430.15 296.91C430.15 288.74 430.15 271.11 430.15 262.94C430.15 259.14 433.23 256.06 437.03 256.06C445.2 256.06 462.83 256.06 471 256.06C474.8 256.06 477.89 259.14 477.89 262.94Z" id="elpL22haa"></path><path d="M454.02 202.14L483.52 202.14" id="cfFQQZSGl"></path><path d="M418.23 353.17C418.23 348.73 418.23 345.96 418.23 344.85C418.23 336.26 411.27 329.3 402.68 329.3C401.57 329.3 398.8 329.3 394.37 329.3" id="a7RGlTLTt"></path><path d="M418.21 378.67C411.63 378.67 406.28 373.32 406.28 366.73C406.28 360.15 411.63 354.8 418.21 354.8C424.8 354.8 430.15 360.15 430.15 366.73C430.15 373.32 424.8 378.67 418.21 378.67Z" id="d3h8bGVkVv"></path><path d="M372.19 349.75C372.19 357.92 372.19 375.55 372.19 383.72C372.19 387.52 369.1 390.6 365.3 390.6C357.13 390.6 339.5 390.6 331.33 390.6C327.53 390.6 324.45 387.52 324.45 383.72C324.45 375.55 324.45 357.92 324.45 349.75C324.45 345.95 327.53 342.87 331.33 342.87C339.5 342.87 357.13 342.87 365.3 342.87C369.1 342.87 372.19 345.95 372.19 349.75Z" id="fbbOdV0pPJ"></path><path d="M374.98 366.73L404.48 366.73" id="azV41EL"></path><path d="M321 366.73C316.56 366.73 313.79 366.73 312.68 366.73C304.09 366.73 297.13 373.69 297.13 382.28C297.13 383.39 297.13 386.16 297.13 390.59" id="a1cRGTl2rY"></path><path d="M431.58 366.73L461.08 366.73" id="aJgZRTWnw"></path><path d="M457.9 366.73L487.4 366.73" id="bKXsGjWj4"></path><path d="M75.86 118.06C69.28 118.06 63.93 112.71 63.93 106.12C63.93 99.54 69.28 94.19 75.86 94.19C82.45 94.19 87.8 99.54 87.8 106.12C87.8 112.71 82.45 118.06 75.86 118.06Z" id="c1Jvru9uv4"></path><path d="M75.86 92.28L75.86 62.78" id="b2eGS1cvHU"></path><path d="M33.14 106.13L62.64 106.13" id="b88pTNTiVx"></path></defs><g><g><g><g><use xlink:href="#b5vwqY9ys0" opacity="1" fill-opacity="0" stroke="#000000" stroke-width="1" stroke-opacity="0"></use></g></g><g><g><use xlink:href="#b2hl2ed2CE" opacity="1" fill-opacity="0" stroke="#14072a" stroke-width="8" stroke-opacity="1"></use></g></g><g><g><use xlink:href="#a4znAcFZ9" opacity="1" fill-opacity="0" stroke="#14072a" stroke-width="8" stroke-opacity="1"></use></g></g><g><g><use xlink:href="#c1aXsgCaoj" opacity="1" fill-opacity="0" stroke="#14072a" stroke-width="8" stroke-opacity="1"></use></g></g><g><g><use xlink:href="#a2rBmari5d" opacity="1" fill-opacity="0" stroke="#14072a" stroke-width="8" stroke-opacity="1"></use></g></g><g><g><use xlink:href="#a53v1cdVe" opacity="1" fill-opacity="0" stroke="#000000" stroke-width="1" stroke-opacity="0"></use></g></g><g><g><use xlink:href="#aRo6mM1JG" opacity="1" fill-opacity="0" stroke="#14072a" stroke-width="7" stroke-opacity="1"></use></g></g><g><g><use xlink:href="#e3YQ3BMPth" opacity="1" fill-opacity="0" stroke="#14072a" stroke-width="8" stroke-opacity="1"></use></g></g><g><g><use xlink:href="#dOnn62goV" opacity="1" fill-opacity="0" stroke="#14072a" stroke-width="8" stroke-opacity="1"></use></g></g><g><g><use xlink:href="#c6INjwzFwA" opacity="1" fill-opacity="0" stroke="#14072a" stroke-width="8" stroke-opacity="1"></use></g></g><g><g><use xlink:href="#avX8hzpWN" opacity="1" fill-opacity="0" stroke="#14072a" stroke-width="8" stroke-opacity="1"></use></g></g><g><g><use xlink:href="#c2eJXGkRII" opacity="1" fill-opacity="0" stroke="#14072a" stroke-width="8" stroke-opacity="1"></use></g></g><g><g><use xlink:href="#f6RToV7afT" opacity="1" fill-opacity="0" stroke="#14072a" stroke-width="8" stroke-opacity="1"></use></g></g><g><g><use xlink:href="#c7EylyBuY1" opacity="1" fill-opacity="0" stroke="#14072a" stroke-width="8" stroke-opacity="1"></use></g></g><g><g><use xlink:href="#a4HhG90RDs" opacity="1" fill-opacity="0" stroke="#14072a" stroke-width="7" stroke-opacity="1"></use></g></g><g><g><use xlink:href="#cWf7JxSHd" opacity="1" fill-opacity="0" stroke="#14072a" stroke-width="8" stroke-opacity="1"></use></g></g><g><g><use xlink:href="#csd6nPWrV" opacity="1" fill-opacity="0" stroke="#14072a" stroke-width="8" stroke-opacity="1"></use></g></g><g><g><use xlink:href="#a2gAi5jGWZ" opacity="1" fill-opacity="0" stroke="#14072a" stroke-width="8" stroke-opacity="1"></use></g></g><g><g><use xlink:href="#bjVfDP6A" opacity="1" fill-opacity="0" stroke="#14072a" stroke-width="8" stroke-opacity="1"></use></g></g><g><g><use xlink:href="#d1g1CcnZvG" opacity="1" fill-opacity="0" stroke="#14072a" stroke-width="8" stroke-opacity="1"></use></g></g><g><g><use xlink:href="#aGvANqhkJ" opacity="1" fill-opacity="0" stroke="#14072a" stroke-width="8" stroke-opacity="1"></use></g></g><g><g><use xlink:href="#ajXvl2fMw" opacity="1" fill-opacity="0" stroke="#14072a" stroke-width="7" stroke-opacity="1"></use></g></g><g><g><use xlink:href="#d13uGsCxIA" opacity="1" fill-opacity="0" stroke="#14072a" stroke-width="8" stroke-opacity="1"></use></g></g><g><g><use xlink:href="#b2MOS8isP" opacity="1" fill-opacity="0" stroke="#14072a" stroke-width="7" stroke-opacity="1"></use></g></g><g><g><use xlink:href="#dqjPETe5z" opacity="1" fill-opacity="0" stroke="#14072a" stroke-width="8" stroke-opacity="1"></use></g></g><g><g><use xlink:href="#b4cYNkwAr" opacity="1" fill-opacity="0" stroke="#14072a" stroke-width="8" stroke-opacity="1"></use></g></g><g><g><use xlink:href="#e2DlQYs8o" opacity="1" fill-opacity="0" stroke="#14072a" stroke-width="8" stroke-opacity="1"></use></g></g><g><g><use xlink:href="#a3ZIr0eHQi" opacity="1" fill-opacity="0" stroke="#14072a" stroke-width="8" stroke-opacity="1"></use></g></g><g><g><use xlink:href="#b2fvEBd2ym" opacity="1" fill-opacity="0" stroke="#14072a" stroke-width="8" stroke-opacity="1"></use></g></g><g><g><use xlink:href="#cg8TCPezd" opacity="1" fill-opacity="0" stroke="#14072a" stroke-width="8" stroke-opacity="1"></use></g></g><g><g><use xlink:href="#a2GDPZoXm0" opacity="1" fill-opacity="0" stroke="#14072a" stroke-width="7" stroke-opacity="1"></use></g></g><g><g><use xlink:href="#c2TnfagrIK" opacity="1" fill-opacity="0" stroke="#14072a" stroke-width="8" stroke-opacity="1"></use></g></g><g><g><use xlink:href="#dhI4wGv" opacity="1" fill-opacity="0" stroke="#14072a" stroke-width="8" stroke-opacity="1"></use></g></g><g><g><use xlink:href="#a1zucPxVHq" opacity="1" fill-opacity="0" stroke="#14072a" stroke-width="8" stroke-opacity="1"></use></g></g><g><g><use xlink:href="#d3GEmDJM1W" opacity="1" fill-opacity="0" stroke="#14072a" stroke-width="8" stroke-opacity="1"></use></g></g><g><g><use xlink:href="#gZJhcdpeK" opacity="1" fill-opacity="0" stroke="#14072a" stroke-width="8" stroke-opacity="1"></use></g></g><g><g><use xlink:href="#dPhnUVYn2" opacity="1" fill-opacity="0" stroke="#14072a" stroke-width="7" stroke-opacity="1"></use></g></g><g><g><use xlink:href="#j27CNJmGWl" opacity="1" fill-opacity="0" stroke="#14072a" stroke-width="8" stroke-opacity="1"></use></g></g><g><g><use xlink:href="#isRtsCuQ" opacity="1" fill-opacity="0" stroke="#14072a" stroke-width="8" stroke-opacity="1"></use></g></g><g><g><use xlink:href="#grV5vrGvg" opacity="1" fill-opacity="0" stroke="#14072a" stroke-width="7" stroke-opacity="1"></use></g></g><g><g><use xlink:href="#a5p5GS9pQ" opacity="1" fill-opacity="0" stroke="#14072a" stroke-width="8" stroke-opacity="1"></use></g></g><g><g><use xlink:href="#cB7YgQlG4" opacity="1" fill-opacity="0" stroke="#14072a" stroke-width="8" stroke-opacity="1"></use></g></g><g><g><use xlink:href="#b6D1i1oM9F" opacity="1" fill-opacity="0" stroke="#14072a" stroke-width="8" stroke-opacity="1"></use></g></g><g><g><use xlink:href="#aajTh7ODtS" opacity="1" fill-opacity="0" stroke="#14072a" stroke-width="8" stroke-opacity="1"></use></g></g><g><g><use xlink:href="#aaUzcBYXO" opacity="1" fill-opacity="0" stroke="#14072a" stroke-width="7" stroke-opacity="1"></use></g></g><g><g><use xlink:href="#bk4aem7hd" opacity="1" fill-opacity="0" stroke="#14072a" stroke-width="8" stroke-opacity="1"></use></g></g><g><g><use xlink:href="#c1PS61fojj" opacity="1" fill-opacity="0" stroke="#14072a" stroke-width="8" stroke-opacity="1"></use></g></g><g><g><use xlink:href="#gcY1AHGcY" opacity="1" fill-opacity="0" stroke="#14072a" stroke-width="8" stroke-opacity="1"></use></g></g><g><g><use xlink:href="#aOVuVqpvq" opacity="1" fill-opacity="0" stroke="#14072a" stroke-width="7" stroke-opacity="1"></use></g></g><g><g><use xlink:href="#c34o1nOoX" opacity="1" fill-opacity="0" stroke="#14072a" stroke-width="8" stroke-opacity="1"></use></g></g><g><g><use xlink:href="#e3a3zoKPJC" opacity="1" fill-opacity="0" stroke="#14072a" stroke-width="8" stroke-opacity="1"></use></g></g><g><g><use xlink:href="#d8jKw6Xq1" opacity="1" fill-opacity="0" stroke="#14072a" stroke-width="8" stroke-opacity="1"></use></g></g><g><g><use xlink:href="#b3tvrsN5AL" opacity="1" fill-opacity="0" stroke="#14072a" stroke-width="8" stroke-opacity="1"></use></g></g><g><g><use xlink:href="#f1FQLntu3D" opacity="1" fill-opacity="0" stroke="#14072a" stroke-width="8" stroke-opacity="1"></use></g></g><g><g><use xlink:href="#a1yn2mk8AK" opacity="1" fill-opacity="0" stroke="#14072a" stroke-width="8" stroke-opacity="1"></use></g></g><g><g><use xlink:href="#a4k8nZaatr" opacity="1" fill-opacity="0" stroke="#14072a" stroke-width="8" stroke-opacity="1"></use></g></g><g><g><use xlink:href="#elpL22haa" opacity="1" fill-opacity="0" stroke="#14072a" stroke-width="8" stroke-opacity="1"></use></g></g><g><g><use xlink:href="#cfFQQZSGl" opacity="1" fill-opacity="0" stroke="#14072a" stroke-width="8" stroke-opacity="1"></use></g></g><g><g><use xlink:href="#a7RGlTLTt" opacity="1" fill-opacity="0" stroke="#14072a" stroke-width="8" stroke-opacity="1"></use></g></g><g><g><use xlink:href="#d3h8bGVkVv" opacity="1" fill-opacity="0" stroke="#14072a" stroke-width="7" stroke-opacity="1"></use></g></g><g><g><use xlink:href="#fbbOdV0pPJ" opacity="1" fill-opacity="0" stroke="#14072a" stroke-width="8" stroke-opacity="1"></use></g></g><g><g><use xlink:href="#azV41EL" opacity="1" fill-opacity="0" stroke="#14072a" stroke-width="8" stroke-opacity="1"></use></g></g><g><g><use xlink:href="#a1cRGTl2rY" opacity="1" fill-opacity="0" stroke="#14072a" stroke-width="8" stroke-opacity="1"></use></g></g><g><g><use xlink:href="#aJgZRTWnw" opacity="1" fill-opacity="0" stroke="#14072a" stroke-width="8" stroke-opacity="1"></use></g></g><g><g><use xlink:href="#bKXsGjWj4" opacity="1" fill-opacity="0" stroke="#14072a" stroke-width="8" stroke-opacity="1"></use></g></g><g><g><use xlink:href="#c1Jvru9uv4" opacity="1" fill-opacity="0" stroke="#14072a" stroke-width="7" stroke-opacity="1"></use></g></g><g><g><use xlink:href="#b2eGS1cvHU" opacity="1" fill-opacity="0" stroke="#14072a" stroke-width="8" stroke-opacity="1"></use></g></g><g><g><use xlink:href="#b88pTNTiVx" opacity="1" fill-opacity="0" stroke="#14072a" stroke-width="8" stroke-opacity="1"></use></g></g></g></g></svg>