<?xml version="1.0" encoding="UTF-8" standalone="no"?>
<!DOCTYPE svg PUBLIC "-//W3C//DTD SVG 1.1//EN" "http://www.w3.org/Graphics/SVG/1.1/DTD/svg11.dtd">
<svg version="1.1" xmlns="http://www.w3.org/2000/svg" xmlns:xlink="http://www.w3.org/1999/xlink" preserveAspectRatio="xMidYMid meet" width="320" height="430"><defs><path d="M131.56 163.88C131.56 167.68 128.47 170.76 124.67 170.76C116.5 170.76 98.87 170.76 90.7 170.76C86.9 170.76 83.82 167.68 83.82 163.88C83.82 155.71 83.82 138.08 83.82 129.91C83.82 126.11 86.9 123.03 90.7 123.03C98.87 123.03 116.5 123.03 124.67 123.03C128.47 123.03 131.56 126.11 131.56 129.91C131.56 138.08 131.56 155.71 131.56 163.88Z" id="d2d2ViyQ"></path><path d="M131.56 163.88C131.56 167.68 128.47 170.76 124.67 170.76C116.5 170.76 98.87 170.76 90.7 170.76C86.9 170.76 83.82 167.68 83.82 163.88C83.82 155.71 83.82 138.08 83.82 129.91C83.82 126.11 86.9 123.03 90.7 123.03C98.87 123.03 116.5 123.03 124.67 123.03C128.47 123.03 131.56 126.11 131.56 129.91C131.56 138.08 131.56 155.71 131.56 163.88Z" id="j2z5n5crx"></path><path d="M131.56 96.03C127.12 96.03 124.35 96.03 123.24 96.03C114.65 96.03 107.69 102.99 107.69 111.58C107.69 112.69 107.69 115.46 107.69 119.89" id="cNEosj4b"></path><path d="M131.56 96.03C135.99 96.03 138.76 96.03 139.87 96.03C148.46 96.03 155.42 89.06 155.42 80.47C155.42 79.36 155.42 76.59 155.42 72.16" id="c27lclDmDE"></path><path d="M155.42 73.16L155.42 43.66" id="ejQkVdWkB"></path><path d="M143.49 30.72C143.49 24.14 148.84 18.79 155.42 18.79C162.01 18.79 167.36 24.14 167.36 30.72C167.36 37.31 162.01 42.66 155.42 42.66C148.84 42.66 143.49 37.31 143.49 30.72Z" id="b1fignNYPC"></path><path d="M143.49 30.72C143.49 24.14 148.84 18.79 155.42 18.79C162.01 18.79 167.36 24.14 167.36 30.72C167.36 37.31 162.01 42.66 155.42 42.66C148.84 42.66 143.49 37.31 143.49 30.72Z" id="bFl3PLkfj"></path><path d="M234.24 210.61C234.24 214.41 231.15 217.49 227.35 217.49C219.18 217.49 201.55 217.49 193.38 217.49C189.58 217.49 186.5 214.41 186.5 210.61C186.5 202.44 186.5 184.81 186.5 176.64C186.5 172.84 189.58 169.76 193.38 169.76C201.55 169.76 219.18 169.76 227.35 169.76C231.15 169.76 234.24 172.84 234.24 176.64C234.24 184.81 234.24 202.44 234.24 210.61Z" id="a23auFtZXE"></path><path d="M158.94 170.77C158.94 166.33 158.94 163.56 158.94 162.45C158.94 153.86 151.98 146.9 143.39 146.9C142.28 146.9 139.51 146.9 135.08 146.9" id="d110hIXDCV"></path><path d="M158.94 169.76C158.94 174.19 158.94 176.96 158.94 178.07C158.94 186.66 165.91 193.62 174.5 193.62C175.61 193.62 178.38 193.62 182.81 193.62" id="ebfLsffCw"></path><path d="M237.96 193.62L267.46 193.62" id="h5e3pOQ2Y"></path><path d="M210.37 166.75L210.37 137.25" id="ac5Pv87nJ"></path><path d="M266.45 78.46C266.45 74.02 266.45 71.25 266.45 70.14C266.45 61.55 259.49 54.59 250.9 54.59C249.79 54.59 247.02 54.59 242.59 54.59" id="b5rfh2Utwb"></path><path d="M43.73 104.15C43.73 99.71 43.73 96.94 43.73 95.83C43.73 87.24 36.77 80.28 28.18 80.28C27.07 80.28 24.3 80.28 19.87 80.28" id="a4eH1afTj"></path><path d="M162.64 113.38C162.64 106.8 167.99 101.45 174.57 101.45C181.16 101.45 186.51 106.8 186.51 113.38C186.51 119.97 181.16 125.32 174.57 125.32C167.99 125.32 162.64 119.97 162.64 113.38Z" id="ejdXZy6DD"></path><path d="M266.46 190.47L266.46 160.97" id="b22hiHVPfG"></path><path d="M290.33 150.95C290.33 154.75 287.24 157.83 283.44 157.83C275.27 157.83 257.64 157.83 249.47 157.83C245.67 157.83 242.59 154.75 242.59 150.95C242.59 142.78 242.59 125.15 242.59 116.98C242.59 113.18 245.67 110.1 249.47 110.1C257.64 110.1 275.27 110.1 283.44 110.1C287.24 110.1 290.33 113.18 290.33 116.98C290.33 125.15 290.33 142.78 290.33 150.95Z" id="i4YfhjWvl"></path><path d="M266.46 106.96L266.46 77.46" id="ba47Cs0sm"></path><path d="M210.37 137.25C210.37 132.81 210.37 130.04 210.37 128.93C210.37 120.34 203.41 113.38 194.82 113.38C193.71 113.38 190.94 113.38 186.51 113.38" id="a3xxbVUV5M"></path><path d="M240.16 71.58C240.16 75.38 237.07 78.46 233.27 78.46C225.1 78.46 207.47 78.46 199.3 78.46C195.5 78.46 192.42 75.38 192.42 71.58C192.42 63.41 192.42 45.78 192.42 37.61C192.42 33.81 195.5 30.73 199.3 30.73C207.47 30.73 225.1 30.73 233.27 30.73C237.07 30.73 240.16 33.81 240.16 37.61C240.16 45.78 240.16 63.41 240.16 71.58Z" id="bco74Vwiv"></path><path d="M270.23 78.46L299.73 78.46" id="b7A6gsXuIX"></path><path d="M302.14 78.45C302.14 71.87 307.49 66.52 314.07 66.52C320.66 66.52 326.01 71.87 326.01 78.45C326.01 85.04 320.66 90.39 314.07 90.39C307.49 90.39 302.14 85.04 302.14 78.45Z" id="aWmQWaYko"></path><path d="M217.29 28.43L217.29 -1.07" id="a124f2nWbq"></path><path d="M275.86 28.43C275.86 21.85 281.21 16.5 287.79 16.5C294.38 16.5 299.73 21.85 299.73 28.43C299.73 35.02 294.38 40.37 287.79 40.37C281.21 40.37 275.86 35.02 275.86 28.43Z" id="b11uNvav79"></path><path d="M287.8 13.68L287.8 -15.82" id="c1htTLHGwt"></path><path d="M115.39 71.58C115.39 75.38 112.3 78.46 108.5 78.46C100.33 78.46 82.7 78.46 74.53 78.46C70.73 78.46 67.65 75.38 67.65 71.58C67.65 63.41 67.65 45.78 67.65 37.61C67.65 33.81 70.73 30.73 74.53 30.73C82.7 30.73 100.33 30.73 108.5 30.73C112.3 30.73 115.39 33.81 115.39 37.61C115.39 45.78 115.39 63.41 115.39 71.58Z" id="a1BPZQyolK"></path><path d="M91.52 28.43L91.52 -1.07" id="aN4jpAPyG"></path><path d="M328.39 78.46L357.89 78.46" id="j4oEKF7NgD"></path><path d="M408.86 95.45C408.86 99.25 405.77 102.33 401.97 102.33C393.8 102.33 376.17 102.33 368 102.33C364.2 102.33 361.12 99.25 361.12 95.45C361.12 87.28 361.12 69.65 361.12 61.48C361.12 57.68 364.2 54.6 368 54.6C376.17 54.6 393.8 54.6 401.97 54.6C405.77 54.6 408.86 57.68 408.86 61.48C408.86 69.65 408.86 87.28 408.86 95.45Z" id="a1iJcl6g5x"></path><path d="M107.69 203.92L107.69 174.42" id="beb71TzZ6"></path><path d="M95.76 217.48C95.76 210.9 101.11 205.55 107.68 205.55C114.27 205.55 119.62 210.9 119.62 217.48C119.62 224.07 114.27 229.42 107.68 229.42C101.11 229.42 95.76 224.07 95.76 217.48Z" id="f5tFL9jCI"></path><path d="M145.23 241.36C145.23 236.92 145.23 234.15 145.23 233.04C145.23 224.45 138.27 217.49 129.68 217.49C128.57 217.49 125.8 217.49 121.37 217.49" id="e1kV1dkmxo"></path><path d="M169.1 285.74C169.1 289.54 166.01 292.62 162.21 292.62C154.04 292.62 136.41 292.62 128.24 292.62C124.44 292.62 121.36 289.54 121.36 285.74C121.36 277.57 121.36 259.94 121.36 251.77C121.36 247.97 124.44 244.89 128.24 244.89C136.41 244.89 154.04 244.89 162.21 244.89C166.01 244.89 169.1 247.97 169.1 251.77C169.1 259.94 169.1 277.57 169.1 285.74Z" id="b2EZR7YOy7"></path><path d="M63.47 217.49L92.97 217.49" id="c3aV5mABHH"></path><path d="M63.09 234.48C63.09 238.28 60 241.36 56.2 241.36C48.03 241.36 30.4 241.36 22.23 241.36C18.43 241.36 15.35 238.28 15.35 234.48C15.35 226.31 15.35 208.68 15.35 200.51C15.35 196.71 18.43 193.63 22.23 193.63C30.4 193.63 48.03 193.63 56.2 193.63C60 193.63 63.09 196.71 63.09 200.51C63.09 208.68 63.09 226.31 63.09 234.48Z" id="cyoABAoyZ"></path><path d="M172.33 268.76L201.83 268.76" id="b35wHwDBe2"></path><path d="M204.35 268.75C204.35 262.17 209.7 256.82 216.28 256.82C222.87 256.82 228.22 262.17 228.22 268.75C228.22 275.34 222.87 280.69 216.28 280.69C209.7 280.69 204.35 275.34 204.35 268.75Z" id="aBt2KI7aw"></path><path d="M266.45 208.38L266.45 178.88" id="n2ZoOfa3mV"></path><path d="M266.45 237.88L266.45 208.38" id="a2QIxtmqvG"></path><path d="M254.52 249.81C254.52 243.23 259.87 237.88 266.45 237.88C273.04 237.88 278.39 243.23 278.39 249.81C278.39 256.4 273.04 261.75 266.45 261.75C259.87 261.75 254.52 256.4 254.52 249.81Z" id="a3AKD639RV"></path><path d="M349.88 228.73C349.88 232.53 346.79 235.61 342.99 235.61C334.82 235.61 317.19 235.61 309.02 235.61C305.22 235.61 302.14 232.53 302.14 228.73C302.14 220.56 302.14 202.93 302.14 194.76C302.14 190.96 305.22 187.88 309.02 187.88C317.19 187.88 334.82 187.88 342.99 187.88C346.79 187.88 349.88 190.96 349.88 194.76C349.88 202.93 349.88 220.56 349.88 228.73Z" id="i73SPJlogj"></path><path d="M349.88 133.97C345.44 133.97 342.67 133.97 341.56 133.97C332.97 133.97 326.01 140.93 326.01 149.52C326.01 150.63 326.01 153.4 326.01 157.83" id="e7KQo9A6bS"></path><path d="M326.01 237.26C326.01 241.69 326.01 244.46 326.01 245.57C326.01 254.16 332.98 261.12 341.57 261.12C342.68 261.12 345.45 261.12 349.88 261.12" id="e1bbuz8hBy"></path><path d="M326.01 185.69L326.01 156.19" id="a5AmPc9z5"></path><path d="M352.58 133.96C352.58 127.38 357.93 122.03 364.51 122.03C371.1 122.03 376.45 127.38 376.45 133.96C376.45 140.55 371.1 145.9 364.51 145.9C357.93 145.9 352.58 140.55 352.58 133.96Z" id="dpa9yKJDS"></path><path d="M379.36 133.97L408.86 133.97" id="byjaWmLcA"></path><path d="M352.58 211.75L382.08 211.75" id="b4j8OLDHp"></path><path d="M-0.23 145.9L29.27 145.9" id="c1wT9l8YK"></path><path d="M31.79 145.89C31.79 139.31 37.14 133.96 43.72 133.96C50.31 133.96 55.66 139.31 55.66 145.89C55.66 152.48 50.31 157.83 43.72 157.83C37.14 157.83 31.79 152.48 31.79 145.89Z" id="g6OZPrpaR"></path><path d="M43.73 131.83L43.73 102.33" id="a135KKwnU5"></path><path d="M88.67 268.76L118.17 268.76" id="b19ZxoPpdt"></path><path d="M89.67 268.76C85.23 268.76 82.46 268.76 81.35 268.76C72.76 268.76 65.8 275.72 65.8 284.31C65.8 285.42 65.8 288.19 65.8 292.62" id="ccC5cfFnC"></path><path d="M65.8 320.53L65.8 291.03" id="f2kJC1TEKB"></path><path d="M384.99 52.3C384.99 47.86 384.99 45.09 384.99 43.98C384.99 35.39 378.03 28.43 369.44 28.43C368.33 28.43 365.56 28.43 361.13 28.43" id="a1cH0zVadA"></path><path d="M337.95 4.57C337.95 9 337.95 11.77 337.95 12.88C337.95 21.47 344.92 28.43 353.51 28.43C354.62 28.43 357.39 28.43 361.82 28.43" id="e81nxytnl"></path><path d="M337.95 6.49L337.95 -23.01" id="c2YRsYDgkL"></path><path d="M431.3 228.73C431.3 232.53 428.21 235.61 424.41 235.61C416.24 235.61 398.61 235.61 390.44 235.61C386.64 235.61 383.56 232.53 383.56 228.73C383.56 220.56 383.56 202.93 383.56 194.76C383.56 190.96 386.64 187.88 390.44 187.88C398.61 187.88 416.24 187.88 424.41 187.88C428.21 187.88 431.3 190.96 431.3 194.76C431.3 202.93 431.3 220.56 431.3 228.73Z" id="fCpXoB519"></path><path d="M407.43 133.96L436.93 133.96" id="ba5vptkzUC"></path><path d="M371.64 284.99C371.64 280.55 371.64 277.78 371.64 276.67C371.64 268.08 364.68 261.12 356.09 261.12C354.98 261.12 352.21 261.12 347.78 261.12" id="j1jevMwg3a"></path><path d="M359.69 298.55C359.69 291.97 365.04 286.62 371.62 286.62C378.21 286.62 383.56 291.97 383.56 298.55C383.56 305.14 378.21 310.49 371.62 310.49C365.04 310.49 359.69 305.14 359.69 298.55Z" id="b3jsSZAO3u"></path><path d="M325.6 315.54C325.6 319.34 322.51 322.42 318.71 322.42C310.54 322.42 292.91 322.42 284.74 322.42C280.94 322.42 277.86 319.34 277.86 315.54C277.86 307.37 277.86 289.74 277.86 281.57C277.86 277.77 280.94 274.69 284.74 274.69C292.91 274.69 310.54 274.69 318.71 274.69C322.51 274.69 325.6 277.77 325.6 281.57C325.6 289.74 325.6 307.37 325.6 315.54Z" id="aJtoHQQE"></path><path d="M328.39 298.55L357.89 298.55" id="ceAlhoH3u"></path><path d="M274.41 298.55C269.97 298.55 267.2 298.55 266.09 298.55C257.5 298.55 250.54 305.51 250.54 314.1C250.54 315.21 250.54 317.98 250.54 322.41" id="a3DTwc6IDW"></path><path d="M384.99 298.55L414.49 298.55" id="e67pNc3Xzo"></path><path d="M411.31 298.55L440.81 298.55" id="dheCuPYz9"></path><path d="M17.34 37.94C17.34 31.36 22.69 26.01 29.27 26.01C35.86 26.01 41.21 31.36 41.21 37.94C41.21 44.53 35.86 49.88 29.27 49.88C22.69 49.88 17.34 44.53 17.34 37.94Z" id="k1n9LDgUrC"></path><path d="M29.27 24.1L29.27 -5.4" id="a4pqIhp7e"></path><path d="M-13.45 37.95L16.05 37.95" id="b30H9d4hLJ"></path><path d="M-7.1 80.28L22.4 80.28" id="a1kdAZygjT"></path></defs><g><g><g><use xlink:href="#d2d2ViyQ" opacity="1" fill="#000000" fill-opacity="0"></use><g><use xlink:href="#d2d2ViyQ" opacity="1" fill-opacity="0" stroke="#000000" stroke-width="1" stroke-opacity="0"></use></g></g><g><use xlink:href="#j2z5n5crx" opacity="1" fill="#000000" fill-opacity="0"></use><g><use xlink:href="#j2z5n5crx" opacity="1" fill-opacity="0" stroke="#ffebee" stroke-width="8" stroke-opacity="1"></use></g></g><g><use xlink:href="#cNEosj4b" opacity="1" fill="#000000" fill-opacity="0"></use><g><use xlink:href="#cNEosj4b" opacity="1" fill-opacity="0" stroke="#ffebee" stroke-width="8" stroke-opacity="1"></use></g></g><g><use xlink:href="#c27lclDmDE" opacity="1" fill="#000000" fill-opacity="0"></use><g><use xlink:href="#c27lclDmDE" opacity="1" fill-opacity="0" stroke="#ffebee" stroke-width="8" stroke-opacity="1"></use></g></g><g><use xlink:href="#ejQkVdWkB" opacity="1" fill="#000000" fill-opacity="0"></use><g><use xlink:href="#ejQkVdWkB" opacity="1" fill-opacity="0" stroke="#ffebee" stroke-width="8" stroke-opacity="1"></use></g></g><g><use xlink:href="#b1fignNYPC" opacity="1" fill="#000000" fill-opacity="0"></use><g><use xlink:href="#b1fignNYPC" opacity="1" fill-opacity="0" stroke="#000000" stroke-width="1" stroke-opacity="0"></use></g></g><g><use xlink:href="#bFl3PLkfj" opacity="1" fill="#000000" fill-opacity="0"></use><g><use xlink:href="#bFl3PLkfj" opacity="1" fill-opacity="0" stroke="#ffebee" stroke-width="7" stroke-opacity="1"></use></g></g><g><use xlink:href="#a23auFtZXE" opacity="1" fill="#000000" fill-opacity="0"></use><g><use xlink:href="#a23auFtZXE" opacity="1" fill-opacity="0" stroke="#ffebee" stroke-width="8" stroke-opacity="1"></use></g></g><g><use xlink:href="#d110hIXDCV" opacity="1" fill="#000000" fill-opacity="0"></use><g><use xlink:href="#d110hIXDCV" opacity="1" fill-opacity="0" stroke="#ffebee" stroke-width="8" stroke-opacity="1"></use></g></g><g><use xlink:href="#ebfLsffCw" opacity="1" fill="#000000" fill-opacity="0"></use><g><use xlink:href="#ebfLsffCw" opacity="1" fill-opacity="0" stroke="#ffebee" stroke-width="8" stroke-opacity="1"></use></g></g><g><use xlink:href="#h5e3pOQ2Y" opacity="1" fill="#000000" fill-opacity="0"></use><g><use xlink:href="#h5e3pOQ2Y" opacity="1" fill-opacity="0" stroke="#ffebee" stroke-width="8" stroke-opacity="1"></use></g></g><g><use xlink:href="#ac5Pv87nJ" opacity="1" fill="#000000" fill-opacity="0"></use><g><use xlink:href="#ac5Pv87nJ" opacity="1" fill-opacity="0" stroke="#ffebee" stroke-width="8" stroke-opacity="1"></use></g></g><g><use xlink:href="#b5rfh2Utwb" opacity="1" fill="#000000" fill-opacity="0"></use><g><use xlink:href="#b5rfh2Utwb" opacity="1" fill-opacity="0" stroke="#ffebee" stroke-width="8" stroke-opacity="1"></use></g></g><g><use xlink:href="#a4eH1afTj" opacity="1" fill="#000000" fill-opacity="0"></use><g><use xlink:href="#a4eH1afTj" opacity="1" fill-opacity="0" stroke="#ffebee" stroke-width="8" stroke-opacity="1"></use></g></g><g><use xlink:href="#ejdXZy6DD" opacity="1" fill="#000000" fill-opacity="0"></use><g><use xlink:href="#ejdXZy6DD" opacity="1" fill-opacity="0" stroke="#ffebee" stroke-width="7" stroke-opacity="1"></use></g></g><g><use xlink:href="#b22hiHVPfG" opacity="1" fill="#000000" fill-opacity="0"></use><g><use xlink:href="#b22hiHVPfG" opacity="1" fill-opacity="0" stroke="#ffebee" stroke-width="8" stroke-opacity="1"></use></g></g><g><use xlink:href="#i4YfhjWvl" opacity="1" fill="#000000" fill-opacity="0"></use><g><use xlink:href="#i4YfhjWvl" opacity="1" fill-opacity="0" stroke="#ffebee" stroke-width="8" stroke-opacity="1"></use></g></g><g><use xlink:href="#ba47Cs0sm" opacity="1" fill="#000000" fill-opacity="0"></use><g><use xlink:href="#ba47Cs0sm" opacity="1" fill-opacity="0" stroke="#ffebee" stroke-width="8" stroke-opacity="1"></use></g></g><g><use xlink:href="#a3xxbVUV5M" opacity="1" fill="#000000" fill-opacity="0"></use><g><use xlink:href="#a3xxbVUV5M" opacity="1" fill-opacity="0" stroke="#ffebee" stroke-width="8" stroke-opacity="1"></use></g></g><g><use xlink:href="#bco74Vwiv" opacity="1" fill="#000000" fill-opacity="0"></use><g><use xlink:href="#bco74Vwiv" opacity="1" fill-opacity="0" stroke="#ffebee" stroke-width="8" stroke-opacity="1"></use></g></g><g><use xlink:href="#b7A6gsXuIX" opacity="1" fill="#000000" fill-opacity="0"></use><g><use xlink:href="#b7A6gsXuIX" opacity="1" fill-opacity="0" stroke="#ffebee" stroke-width="8" stroke-opacity="1"></use></g></g><g><use xlink:href="#aWmQWaYko" opacity="1" fill="#000000" fill-opacity="0"></use><g><use xlink:href="#aWmQWaYko" opacity="1" fill-opacity="0" stroke="#ffebee" stroke-width="7" stroke-opacity="1"></use></g></g><g><use xlink:href="#a124f2nWbq" opacity="1" fill="#000000" fill-opacity="0"></use><g><use xlink:href="#a124f2nWbq" opacity="1" fill-opacity="0" stroke="#ffebee" stroke-width="8" stroke-opacity="1"></use></g></g><g><use xlink:href="#b11uNvav79" opacity="1" fill="#000000" fill-opacity="0"></use><g><use xlink:href="#b11uNvav79" opacity="1" fill-opacity="0" stroke="#ffebee" stroke-width="7" stroke-opacity="1"></use></g></g><g><use xlink:href="#c1htTLHGwt" opacity="1" fill="#000000" fill-opacity="0"></use><g><use xlink:href="#c1htTLHGwt" opacity="1" fill-opacity="0" stroke="#ffebee" stroke-width="8" stroke-opacity="1"></use></g></g><g><use xlink:href="#a1BPZQyolK" opacity="1" fill="#000000" fill-opacity="0"></use><g><use xlink:href="#a1BPZQyolK" opacity="1" fill-opacity="0" stroke="#ffebee" stroke-width="8" stroke-opacity="1"></use></g></g><g><use xlink:href="#aN4jpAPyG" opacity="1" fill="#000000" fill-opacity="0"></use><g><use xlink:href="#aN4jpAPyG" opacity="1" fill-opacity="0" stroke="#ffebee" stroke-width="8" stroke-opacity="1"></use></g></g><g><use xlink:href="#j4oEKF7NgD" opacity="1" fill="#000000" fill-opacity="0"></use><g><use xlink:href="#j4oEKF7NgD" opacity="1" fill-opacity="0" stroke="#ffebee" stroke-width="8" stroke-opacity="1"></use></g></g><g><use xlink:href="#a1iJcl6g5x" opacity="1" fill="#000000" fill-opacity="0"></use><g><use xlink:href="#a1iJcl6g5x" opacity="1" fill-opacity="0" stroke="#ffebee" stroke-width="8" stroke-opacity="1"></use></g></g><g><use xlink:href="#beb71TzZ6" opacity="1" fill="#000000" fill-opacity="0"></use><g><use xlink:href="#beb71TzZ6" opacity="1" fill-opacity="0" stroke="#ffebee" stroke-width="8" stroke-opacity="1"></use></g></g><g><use xlink:href="#f5tFL9jCI" opacity="1" fill="#000000" fill-opacity="0"></use><g><use xlink:href="#f5tFL9jCI" opacity="1" fill-opacity="0" stroke="#ffebee" stroke-width="7" stroke-opacity="1"></use></g></g><g><use xlink:href="#e1kV1dkmxo" opacity="1" fill="#000000" fill-opacity="0"></use><g><use xlink:href="#e1kV1dkmxo" opacity="1" fill-opacity="0" stroke="#ffebee" stroke-width="8" stroke-opacity="1"></use></g></g><g><use xlink:href="#b2EZR7YOy7" opacity="1" fill="#000000" fill-opacity="0"></use><g><use xlink:href="#b2EZR7YOy7" opacity="1" fill-opacity="0" stroke="#ffebee" stroke-width="8" stroke-opacity="1"></use></g></g><g><use xlink:href="#c3aV5mABHH" opacity="1" fill="#000000" fill-opacity="0"></use><g><use xlink:href="#c3aV5mABHH" opacity="1" fill-opacity="0" stroke="#ffebee" stroke-width="8" stroke-opacity="1"></use></g></g><g><use xlink:href="#cyoABAoyZ" opacity="1" fill="#000000" fill-opacity="0"></use><g><use xlink:href="#cyoABAoyZ" opacity="1" fill-opacity="0" stroke="#ffebee" stroke-width="8" stroke-opacity="1"></use></g></g><g><use xlink:href="#b35wHwDBe2" opacity="1" fill="#000000" fill-opacity="0"></use><g><use xlink:href="#b35wHwDBe2" opacity="1" fill-opacity="0" stroke="#ffebee" stroke-width="8" stroke-opacity="1"></use></g></g><g><use xlink:href="#aBt2KI7aw" opacity="1" fill="#000000" fill-opacity="0"></use><g><use xlink:href="#aBt2KI7aw" opacity="1" fill-opacity="0" stroke="#ffebee" stroke-width="7" stroke-opacity="1"></use></g></g><g><use xlink:href="#n2ZoOfa3mV" opacity="1" fill="#000000" fill-opacity="0"></use><g><use xlink:href="#n2ZoOfa3mV" opacity="1" fill-opacity="0" stroke="#ffebee" stroke-width="8" stroke-opacity="1"></use></g></g><g><use xlink:href="#a2QIxtmqvG" opacity="1" fill="#000000" fill-opacity="0"></use><g><use xlink:href="#a2QIxtmqvG" opacity="1" fill-opacity="0" stroke="#ffebee" stroke-width="8" stroke-opacity="1"></use></g></g><g><use xlink:href="#a3AKD639RV" opacity="1" fill="#000000" fill-opacity="0"></use><g><use xlink:href="#a3AKD639RV" opacity="1" fill-opacity="0" stroke="#ffebee" stroke-width="7" stroke-opacity="1"></use></g></g><g><use xlink:href="#i73SPJlogj" opacity="1" fill="#000000" fill-opacity="0"></use><g><use xlink:href="#i73SPJlogj" opacity="1" fill-opacity="0" stroke="#ffebee" stroke-width="8" stroke-opacity="1"></use></g></g><g><use xlink:href="#e7KQo9A6bS" opacity="1" fill="#000000" fill-opacity="0"></use><g><use xlink:href="#e7KQo9A6bS" opacity="1" fill-opacity="0" stroke="#ffebee" stroke-width="8" stroke-opacity="1"></use></g></g><g><use xlink:href="#e1bbuz8hBy" opacity="1" fill="#000000" fill-opacity="0"></use><g><use xlink:href="#e1bbuz8hBy" opacity="1" fill-opacity="0" stroke="#ffebee" stroke-width="8" stroke-opacity="1"></use></g></g><g><use xlink:href="#a5AmPc9z5" opacity="1" fill="#000000" fill-opacity="0"></use><g><use xlink:href="#a5AmPc9z5" opacity="1" fill-opacity="0" stroke="#ffebee" stroke-width="8" stroke-opacity="1"></use></g></g><g><use xlink:href="#dpa9yKJDS" opacity="1" fill="#000000" fill-opacity="0"></use><g><use xlink:href="#dpa9yKJDS" opacity="1" fill-opacity="0" stroke="#ffebee" stroke-width="7" stroke-opacity="1"></use></g></g><g><use xlink:href="#byjaWmLcA" opacity="1" fill="#000000" fill-opacity="0"></use><g><use xlink:href="#byjaWmLcA" opacity="1" fill-opacity="0" stroke="#ffebee" stroke-width="8" stroke-opacity="1"></use></g></g><g><use xlink:href="#b4j8OLDHp" opacity="1" fill="#000000" fill-opacity="0"></use><g><use xlink:href="#b4j8OLDHp" opacity="1" fill-opacity="0" stroke="#ffebee" stroke-width="8" stroke-opacity="1"></use></g></g><g><use xlink:href="#c1wT9l8YK" opacity="1" fill="#000000" fill-opacity="0"></use><g><use xlink:href="#c1wT9l8YK" opacity="1" fill-opacity="0" stroke="#ffebee" stroke-width="8" stroke-opacity="1"></use></g></g><g><use xlink:href="#g6OZPrpaR" opacity="1" fill="#000000" fill-opacity="0"></use><g><use xlink:href="#g6OZPrpaR" opacity="1" fill-opacity="0" stroke="#ffebee" stroke-width="7" stroke-opacity="1"></use></g></g><g><use xlink:href="#a135KKwnU5" opacity="1" fill="#000000" fill-opacity="0"></use><g><use xlink:href="#a135KKwnU5" opacity="1" fill-opacity="0" stroke="#ffebee" stroke-width="8" stroke-opacity="1"></use></g></g><g><use xlink:href="#b19ZxoPpdt" opacity="1" fill="#000000" fill-opacity="0"></use><g><use xlink:href="#b19ZxoPpdt" opacity="1" fill-opacity="0" stroke="#ffebee" stroke-width="8" stroke-opacity="1"></use></g></g><g><use xlink:href="#ccC5cfFnC" opacity="1" fill="#000000" fill-opacity="0"></use><g><use xlink:href="#ccC5cfFnC" opacity="1" fill-opacity="0" stroke="#ffebee" stroke-width="8" stroke-opacity="1"></use></g></g><g><use xlink:href="#f2kJC1TEKB" opacity="1" fill="#000000" fill-opacity="0"></use><g><use xlink:href="#f2kJC1TEKB" opacity="1" fill-opacity="0" stroke="#ffebee" stroke-width="8" stroke-opacity="1"></use></g></g><g><use xlink:href="#a1cH0zVadA" opacity="1" fill="#000000" fill-opacity="0"></use><g><use xlink:href="#a1cH0zVadA" opacity="1" fill-opacity="0" stroke="#ffebee" stroke-width="8" stroke-opacity="1"></use></g></g><g><use xlink:href="#e81nxytnl" opacity="1" fill="#000000" fill-opacity="0"></use><g><use xlink:href="#e81nxytnl" opacity="1" fill-opacity="0" stroke="#ffebee" stroke-width="8" stroke-opacity="1"></use></g></g><g><use xlink:href="#c2YRsYDgkL" opacity="1" fill="#000000" fill-opacity="0"></use><g><use xlink:href="#c2YRsYDgkL" opacity="1" fill-opacity="0" stroke="#ffebee" stroke-width="8" stroke-opacity="1"></use></g></g><g><use xlink:href="#fCpXoB519" opacity="1" fill="#000000" fill-opacity="0"></use><g><use xlink:href="#fCpXoB519" opacity="1" fill-opacity="0" stroke="#ffebee" stroke-width="8" stroke-opacity="1"></use></g></g><g><use xlink:href="#ba5vptkzUC" opacity="1" fill="#000000" fill-opacity="0"></use><g><use xlink:href="#ba5vptkzUC" opacity="1" fill-opacity="0" stroke="#ffebee" stroke-width="8" stroke-opacity="1"></use></g></g><g><use xlink:href="#j1jevMwg3a" opacity="1" fill="#000000" fill-opacity="0"></use><g><use xlink:href="#j1jevMwg3a" opacity="1" fill-opacity="0" stroke="#ffebee" stroke-width="8" stroke-opacity="1"></use></g></g><g><use xlink:href="#b3jsSZAO3u" opacity="1" fill="#000000" fill-opacity="0"></use><g><use xlink:href="#b3jsSZAO3u" opacity="1" fill-opacity="0" stroke="#ffebee" stroke-width="7" stroke-opacity="1"></use></g></g><g><use xlink:href="#aJtoHQQE" opacity="1" fill="#000000" fill-opacity="0"></use><g><use xlink:href="#aJtoHQQE" opacity="1" fill-opacity="0" stroke="#ffebee" stroke-width="8" stroke-opacity="1"></use></g></g><g><use xlink:href="#ceAlhoH3u" opacity="1" fill="#000000" fill-opacity="0"></use><g><use xlink:href="#ceAlhoH3u" opacity="1" fill-opacity="0" stroke="#ffebee" stroke-width="8" stroke-opacity="1"></use></g></g><g><use xlink:href="#a3DTwc6IDW" opacity="1" fill="#000000" fill-opacity="0"></use><g><use xlink:href="#a3DTwc6IDW" opacity="1" fill-opacity="0" stroke="#ffebee" stroke-width="8" stroke-opacity="1"></use></g></g><g><use xlink:href="#e67pNc3Xzo" opacity="1" fill="#000000" fill-opacity="0"></use><g><use xlink:href="#e67pNc3Xzo" opacity="1" fill-opacity="0" stroke="#ffebee" stroke-width="8" stroke-opacity="1"></use></g></g><g><use xlink:href="#dheCuPYz9" opacity="1" fill="#000000" fill-opacity="0"></use><g><use xlink:href="#dheCuPYz9" opacity="1" fill-opacity="0" stroke="#ffebee" stroke-width="8" stroke-opacity="1"></use></g></g><g><use xlink:href="#k1n9LDgUrC" opacity="1" fill="#000000" fill-opacity="0"></use><g><use xlink:href="#k1n9LDgUrC" opacity="1" fill-opacity="0" stroke="#ffebee" stroke-width="7" stroke-opacity="1"></use></g></g><g><use xlink:href="#a4pqIhp7e" opacity="1" fill="#000000" fill-opacity="0"></use><g><use xlink:href="#a4pqIhp7e" opacity="1" fill-opacity="0" stroke="#ffebee" stroke-width="8" stroke-opacity="1"></use></g></g><g><use xlink:href="#b30H9d4hLJ" opacity="1" fill="#000000" fill-opacity="0"></use><g><use xlink:href="#b30H9d4hLJ" opacity="1" fill-opacity="0" stroke="#ffebee" stroke-width="8" stroke-opacity="1"></use></g></g><g><use xlink:href="#a1kdAZygjT" opacity="1" fill="#000000" fill-opacity="0"></use><g><use xlink:href="#a1kdAZygjT" opacity="1" fill-opacity="0" stroke="#ffebee" stroke-width="8" stroke-opacity="1"></use></g></g></g></g></svg>