<!-- SVG drawing by Steven Traversi. Thanks to vectr.com for the drawing tool. -->
<?xml version="1.0" encoding="UTF-8" standalone="no"?>
<!DOCTYPE svg PUBLIC "-//W3C//DTD SVG 1.1//EN" "http://www.w3.org/Graphics/SVG/1.1/DTD/svg11.dtd">
<svg version="1.1" xmlns="http://www.w3.org/2000/svg" xmlns:xlink="http://www.w3.org/1999/xlink" preserveAspectRatio="xMidYMid meet" viewBox="0 0 640 640" width="640" height="640"><defs><path d="M115.45 36.62C115.57 36.71 115.64 36.77 115.67 36.79C123.1 42.76 121.37 54.52 112.53 58.08C109.95 59.12 116.35 56.54 112.37 58.14C104.76 61.21 96.05 59.06 90.73 52.81C88.25 49.88 92.18 54.51 90.32 52.32C83.05 43.76 81.67 31.67 86.83 21.7C88.48 18.49 85.48 24.3 87.27 20.83C92.09 11.5 101.72 5.64 112.22 5.64C120.81 5.64 108.8 5.64 112.22 5.64C136.07 5.64 155.51 24.76 155.91 48.61C155.91 48.81 155.92 49.31 155.93 50.11C155.95 50.96 155.96 51.49 155.96 51.7C156.38 76.72 136.32 97.27 111.31 97.47C97.13 97.58 61.67 97.86 4.94 98.31" id="a12pDWbaEW"></path></defs><g visibility="inherit"><g visibility="inherit"><g visibility="inherit"><g><use xlink:href="#a12pDWbaEW" opacity="1" fill-opacity="0" stroke="#000000" stroke-width="2" stroke-opacity="1"></use></g></g></g></g></svg>