<?xml version="1.0" encoding="utf-8"?>
<!-- Generated by mfizz (http://fizzed.com/oss/font-mfizz/icon-javascript), svg'd by steven traversi -->
<!DOCTYPE svg PUBLIC "-//W3C//DTD SVG 1.1//EN" "http://www.w3.org/Graphics/SVG/1.1/DTD/svg11.dtd">
<svg version="1.1" xmlns="http://www.w3.org/2000/svg" xmlns:xlink="http://www.w3.org/1999/xlink" width="32" height="32" viewBox="0 0 1300 1300">
<g transform="translate(220,980)">
<g transform="scale(1,-1)">
<path fill="#CE9414" d="M616.025 353.343c11.1748 0.859375 12.7373 0.859375 24.6152 -0.078125c24.2246 -1.79785 42.5889 -7.6582 59.7803 -19.0674c9.29883 -6.17383 22.8184 -20.2393 30.3203 -31.4922c3.5166 -5.31348 6.40723 -9.8457 6.40723 -10.1592
c0 -0.546875 -56.8105 -37.2744 -58.8418 -38.1338c-0.625977 -0.234375 -2.42285 1.875 -4.8457 5.7041c-2.10938 3.36035 -6.6416 8.90918 -10.1582 12.3467c-9.9248 10.0029 -19.6924 13.9102 -34.7744 13.9102c-13.2842 0.078125 -21.8799 -3.28223 -29.3037 -11.3311
c-5.15723 -5.54785 -7.50195 -11.2529 -8.04883 -19.6924c-0.625 -10.627 2.26562 -19.1455 9.06445 -26.4121c7.11133 -7.58008 17.8955 -13.5195 50.0908 -27.3506c42.5879 -18.2861 63.9219 -30.9453 80.4102 -47.668c8.5957 -8.75195 13.5967 -15.707 18.5977 -26.0225
c7.26758 -15.0811 10.4717 -30.3193 10.4717 -49.8555c0 -30.5547 -9.61133 -54.9355 -29.1475 -73.7676c-18.3643 -17.8174 -42.042 -28.2881 -73.6123 -32.7422c-12.5811 -1.71973 -37.1963 -1.79785 -50.3242 0c-50.1689 6.71973 -87.2871 30.1631 -111.043 70.1729
c-3.04785 5.00098 -3.67285 6.64258 -2.8916 7.3457c1.25098 1.17188 60.7178 35.4775 61.4219 35.4775c0.3125 0 2.57812 -2.96973 5.0791 -6.56445c18.2852 -27.0381 41.0254 -39.541 71.502 -39.541c18.0508 0 32.5859 4.92285 41.8066 14.2227
c2.73535 2.73438 5.7832 6.79785 6.95508 9.2207c6.0166 12.5029 3.36035 28.835 -6.17383 39.0723c-7.73633 8.2832 -19.8486 14.9248 -52.4346 28.9131c-23.9121 10.3154 -37.7432 16.957 -47.9023 23.0527c-39.9316 24.1465 -57.8262 54.6221 -57.8262 98.2266
c0 29.1475 9.06445 52.1221 28.0537 70.9551c18.4424 18.2852 43.2139 28.9131 72.752 31.2578zM372.764 211.354l0.3125 138.081h38.2119h38.291v-138.55c0 -91.8975 -0.3125 -140.737 -0.782227 -145.113c-5.3916 -43.2139 -25.7871 -72.2832 -60.5615 -86.3486
c-28.9912 -11.6436 -68.5322 -12.582 -99.3203 -2.34473c-29.1484 9.68945 -53.373 30.7891 -67.3604 58.6865l-2.34473 4.68848l30.8672 18.7539c16.957 10.2373 31.1016 18.7549 31.4141 18.9111c0.234375 0.078125 2.26562 -2.96973 4.53223 -6.7207
c13.9873 -23.9121 26.0215 -32.4297 46.1045 -32.3516c14.0664 0.078125 22.5059 2.81348 29.0703 9.37793c4.68848 4.68848 7.34473 9.76758 9.61133 18.2852l1.71973 6.48633zM108.945 718.348c-51.9688 0 -93.9453 -41.9766 -93.9453 -93.9453v-648.792
c0 -51.9688 41.9766 -93.9453 93.9453 -93.9453h648.792c51.9688 0 93.9453 41.9766 93.9453 93.9453v648.792c0 51.9688 -41.9766 93.9453 -93.9453 93.9453h-648.792zM108.945 668.348h648.792c24.4229 0 43.9453 -19.5234 43.9453 -43.9453v-648.792
c0 -24.4229 -19.5225 -43.9453 -43.9453 -43.9453h-648.792c-24.4219 0 -43.9453 19.5225 -43.9453 43.9453v648.792c0 24.4219 19.5234 43.9453 43.9453 43.9453z"></path>
</g></g>
</svg>
