<?xml version="1.0" encoding="UTF-8" standalone="no"?>
<svg
   xmlns:dc="http://purl.org/dc/elements/1.1/"
   xmlns:cc="http://creativecommons.org/ns#"
   xmlns:rdf="http://www.w3.org/1999/02/22-rdf-syntax-ns#"
   xmlns:svg="http://www.w3.org/2000/svg"
   xmlns="http://www.w3.org/2000/svg"
   viewBox="0 0 666.66669 666.66669"
   height="666.66669"
   width="666.66669"
   xml:space="preserve"
   id="svg2"
   version="1.1"><metadata
     id="metadata8"><rdf:RDF><cc:Work
         rdf:about=""><dc:format>image/svg+xml</dc:format><dc:type
           rdf:resource="http://purl.org/dc/dcmitype/StillImage" /></cc:Work></rdf:RDF></metadata><defs
     id="defs6"><clipPath
       id="clipPath18"
       clipPathUnits="userSpaceOnUse"><path
         id="path16"
         d="M 0,500 H 500 V 0 H 0 Z" /></clipPath></defs><g
     transform="matrix(1.3333333,0,0,-1.3333333,0,666.66667)"
     id="g10"><g
       id="g12"><g
         clip-path="url(#clipPath18)"
         id="g14"><g
           transform="translate(367.0352,298.8589)"
           id="g20"><path
             id="path22"
             style="fill:#ffd23e;fill-opacity:1;fill-rule:nonzero;stroke:none"
             d="m 0,0 c 10.334,-18.895 28.575,-43.48 38.514,-72.053 9.938,-28.572 11.179,-34.785 11.179,-34.785 0,0 18.636,-18.633 29.194,-36.648 10.56,-18.014 19.48,-59.082 -0.398,-64.051 -19.877,-4.969 -36.821,35.704 -36.821,35.704 0,0 -6.883,-31.904 -49.741,-56.131 -42.861,-24.222 -53.421,-18.014 -54.043,-26.709 -0.619,-8.696 12.423,-36.029 -12.423,-37.267 -24.847,-1.244 -32.92,26.709 -37.89,29.19 -4.968,2.488 -8.697,1.245 -8.697,1.245 0,0 -2.484,-36.649 -25.466,-34.786 -22.983,1.863 -13.509,40.219 -25.001,40.999 -3.719,0.245 -12.89,-4.351 -22.207,-24.847 -9.316,-20.502 -28.375,-27.185 -37.888,22.359 -4.505,23.448 -7.484,27.062 -12.272,33.541 -4.811,6.524 -22.98,26.245 -22.98,26.245 0,0 -13.201,-21.275 -23.761,-26.864 -10.558,-5.588 -37.27,-6.213 -34.163,22.984 3.106,29.192 19.877,46.586 26.712,51.556 6.832,4.97 17.389,16.771 17.389,16.771 0,0 5.124,25.31 10.094,35.25 4.969,9.938 23.45,25.625 19.723,49.848 -3.727,24.224 -25.52,42.097 -29.817,54.662 -4.192,12.266 3.262,27.174 11.802,23.603 13.082,-5.471 34.166,-20.497 34.166,-20.497 0,0 -9.938,20.497 -18.637,41.618 -8.694,21.118 0,45.964 25.469,26.709 25.466,-19.258 40.998,-36.029 45.967,-36.648 4.97,-0.624 13.665,-1.244 13.665,-1.244 0,0 2.484,5.589 -0.622,16.771 -3.104,11.183 -18.637,36.029 -24.847,48.45 -6.21,12.425 -9.316,23.605 -14.75,25.001 -5.594,-2.482 -13.825,-14.596 -33.077,-30.59 -19.264,-16.002 -39.136,-2.485 -18.637,23.603 20.499,26.09 31.679,29.816 29.817,34.785 -1.866,4.969 -6.553,11.097 -14.908,15.53 -28.109,14.907 -43.483,-29.194 -52.797,-21.743 -9.32,7.457 2.481,27.644 17.699,38.046 14.683,10.04 44.414,18.482 82.306,-13.818 37.891,-32.301 73.295,-80.129 89.444,-98.765 16.152,-18.636 31.059,-31.057 38.514,-25.468 7.454,5.591 5.588,27.331 10.557,44.104 4.97,16.771 31.449,28.642 40.998,-24.227 C -10.248,25.001 -6.365,11.646 0,0" /></g><g
           transform="translate(270.6787,165.0342)"
           id="g24"><path
             id="path26"
             style="fill:#fef7e5;fill-opacity:1;fill-rule:nonzero;stroke:none"
             d="m 0,0 c 0,-14.107 -11.073,-25.546 -24.731,-25.546 -13.665,0 -24.738,11.439 -24.738,25.546 0,14.107 11.073,25.54 24.738,25.54 C -11.073,25.54 0,14.107 0,0" /></g><g
           transform="translate(390.6992,172.8535)"
           id="g28"><path
             id="path30"
             style="fill:#fef7e5;fill-opacity:1;fill-rule:nonzero;stroke:none"
             d="m 0,0 c 0,-13.429 -7.686,-24.312 -17.168,-24.312 -9.482,0 -17.169,10.883 -17.169,24.312 0,13.424 7.687,24.308 17.169,24.308 C -7.686,24.308 0,13.424 0,0" /></g><g
           transform="translate(274.2363,116.2109)"
           id="g32"><path
             id="path34"
             style="fill:#daaa3a;fill-opacity:1;fill-rule:nonzero;stroke:none"
             d="m 0,0 h 64.342 c 0,0 -9.376,-16.167 -29.421,-15.842 C 14.873,-15.521 0,0 0,0" /></g><g
           transform="translate(274.2363,116.2109)"
           id="g36"><path
             id="path38"
             style="fill:none;stroke:#daaa3a;stroke-width:2.26799989;stroke-linecap:butt;stroke-linejoin:miter;stroke-miterlimit:10;stroke-dasharray:none;stroke-opacity:1"
             d="m 0,0 h 64.342 c 0,0 -9.376,-16.167 -29.421,-15.842 C 14.873,-15.521 0,0 0,0 Z" /></g><g
           transform="translate(265.2529,164.8203)"
           id="g40"><path
             id="path42"
             style="fill:#51575f;fill-opacity:1;fill-rule:nonzero;stroke:none"
             d="m 0,0 c 0,-10.211 -8.281,-18.489 -18.492,-18.489 -10.214,0 -18.489,8.278 -18.489,18.489 0,10.211 8.275,18.489 18.489,18.489 C -8.281,18.489 0,10.211 0,0" /></g><g
           transform="translate(387.1719,171.3916)"
           id="g44"><path
             id="path46"
             style="fill:#51575f;fill-opacity:1;fill-rule:nonzero;stroke:none"
             d="m 0,0 c 0,-9.165 -5.741,-16.601 -12.818,-16.601 -7.081,0 -12.817,7.436 -12.817,16.601 0,9.17 5.736,16.6 12.817,16.6 C -5.741,16.6 0,9.17 0,0" /></g><g
           transform="translate(446.6484,155.6289)"
           id="g48"><path
             id="path50"
             style="fill:#ffd23e;fill-opacity:1;fill-rule:nonzero;stroke:none"
             d="m 0,0 c -9.738,16.616 -26.312,33.724 -28.834,36.285 -0.915,-22.845 -4.55,-45.62 -9.378,-67.947 0.729,2.108 0.992,3.314 0.992,3.314 0,0 16.945,-40.673 36.823,-35.703 C 19.479,-59.081 10.561,-18.014 0,0" /></g><g
           transform="translate(86.374,165.8027)"
           id="g52"><path
             id="path54"
             style="fill:#ffd23e;fill-opacity:1;fill-rule:nonzero;stroke:none"
             d="m 0,0 c -0.059,-0.288 -0.102,-0.491 -0.102,-0.491 0,0 -10.557,-11.801 -17.389,-16.771 -6.832,-4.969 -23.606,-22.364 -26.712,-51.555 -3.105,-29.198 23.605,-28.573 34.163,-22.985 6.613,3.502 14.262,13.153 19.056,19.883 19.669,34.609 52.137,56.29 65.059,95.063 C 45.93,25.492 21.82,13.739 0,0" /></g><g
           transform="translate(161.9033,191.5459)"
           id="g56"><path
             id="path58"
             style="fill:#daaa3a;fill-opacity:1;fill-rule:nonzero;stroke:none"
             d="m 0,0 c 0,0 -0.99,-73.638 -25.908,-84.761 -8.783,-3.918 -26.413,-5.866 -24.782,-18.26 1.08,-8.22 -13.147,11.251 -13.147,11.251 0,0 7.323,15.939 26.706,36.184 C -17.744,-35.335 0,0 0,0" /></g><g
           transform="translate(417.1611,186.6943)"
           id="g60"><path
             id="path62"
             style="fill:#daaa3a;fill-opacity:1;fill-rule:nonzero;stroke:none"
             d="m 0,0 c 0,0 -2.002,-36.365 6.004,-49.373 8.007,-13.008 20.014,-23.678 18.68,-33.019 -1.335,-9.34 -2.336,-13.343 -2.336,-13.343 0,0 -13.01,7.003 -22.015,22.348 -9.004,15.346 -9.338,17.347 -9.338,17.347 0,0 5.335,16.013 6.002,26.353 C -2.336,-19.349 0,0 0,0" /></g></g></g></g></svg>